<?xml version="1.0" encoding="UTF-8" standalone="no"?>
<!-- Created with Inkscape (http://www.inkscape.org/) -->

<svg
   width="1024"
   height="1060"
   viewBox="0 0 1024 1060"
   version="1.1"
   id="svg1"
   inkscape:export-filename="background.png"
   inkscape:export-xdpi="96"
   inkscape:export-ydpi="96"
   inkscape:version="1.4.4 (dcaf3e7, 2026-05-05)"
   sodipodi:docname="background.svg"
   xmlns:inkscape="http://www.inkscape.org/namespaces/inkscape"
   xmlns:sodipodi="http://sodipodi.sourceforge.net/DTD/sodipodi-0.dtd"
   xmlns="http://www.w3.org/2000/svg"
   xmlns:svg="http://www.w3.org/2000/svg">
  <sodipodi:namedview
     id="namedview1"
     pagecolor="#0c003d"
     bordercolor="#000000"
     borderopacity="0.25"
     inkscape:showpageshadow="2"
     inkscape:pageopacity="0.0"
     inkscape:pagecheckerboard="0"
     inkscape:deskcolor="#d1d1d1"
     inkscape:document-units="px"
     inkscape:zoom="0.1767767"
     inkscape:cx="500.6316"
     inkscape:cy="1162.4835"
     inkscape:window-width="1876"
     inkscape:window-height="996"
     inkscape:window-x="0"
     inkscape:window-y="0"
     inkscape:window-maximized="1"
     inkscape:current-layer="layer1" />
  <defs
     id="defs1" />
  <g
     inkscape:label="Layer 1"
     inkscape:groupmode="layer"
     id="layer1">
    <path
       sodipodi:type="star"
       style="fill:none;stroke:#ffffff;stroke-width:15;stroke-linecap:round;stroke-opacity:1;paint-order:stroke fill markers"
       id="path1"
       inkscape:flatsided="true"
       sodipodi:sides="6"
       sodipodi:cx="192.66899"
       sodipodi:cy="171.26132"
       sodipodi:r1="83.218048"
       sodipodi:r2="72.068939"
       sodipodi:arg1="1.0471976"
       sodipodi:arg2="1.5707963"
       inkscape:rounded="0"
       inkscape:randomized="0"
       d="m 234.27801,243.33027 -83.21805,-1e-5 -41.60902,-72.06894 41.60903,-72.068944 83.21805,4e-6 41.60902,72.06895 z"
       transform="matrix(1.113802,0,0,1.1102791,-214.49557,-190.16474)" />
    <path
       sodipodi:type="star"
       style="fill:none;stroke:#ffffff;stroke-width:15;stroke-linecap:round;stroke-opacity:1;paint-order:stroke fill markers"
       id="path1-9"
       inkscape:flatsided="true"
       sodipodi:sides="6"
       sodipodi:cx="192.66899"
       sodipodi:cy="171.26132"
       sodipodi:r1="83.218048"
       sodipodi:r2="72.068939"
       sodipodi:arg1="1.0471976"
       sodipodi:arg2="1.5707963"
       inkscape:rounded="0"
       inkscape:randomized="0"
       d="m 234.27801,243.33027 -83.21805,-1e-5 -41.60902,-72.06894 41.60903,-72.068944 83.21805,4e-6 41.60902,72.06895 z"
       transform="matrix(1.113802,0,0,1.1102791,-9.82711,-190.16474)" />
    <path
       sodipodi:type="star"
       style="fill:none;stroke:#ffffff;stroke-width:15;stroke-linecap:round;stroke-opacity:1;paint-order:stroke fill markers"
       id="path1-9-7"
       inkscape:flatsided="true"
       sodipodi:sides="6"
       sodipodi:cx="192.66899"
       sodipodi:cy="171.26132"
       sodipodi:r1="83.218048"
       sodipodi:r2="72.068939"
       sodipodi:arg1="1.0471976"
       sodipodi:arg2="1.5707963"
       inkscape:rounded="0"
       inkscape:randomized="0"
       d="m 234.27801,243.33027 -83.21805,-1e-5 -41.60902,-72.06894 41.60903,-72.068944 83.21805,4e-6 41.60902,72.06895 z"
       transform="matrix(1.113802,0,0,1.1102791,194.84136,-190.16474)" />
    <path
       sodipodi:type="star"
       style="fill:none;stroke:#ffffff;stroke-width:15;stroke-linecap:round;stroke-opacity:1;paint-order:stroke fill markers"
       id="path1-9-7-3"
       inkscape:flatsided="true"
       sodipodi:sides="6"
       sodipodi:cx="192.66899"
       sodipodi:cy="171.26132"
       sodipodi:r1="83.218048"
       sodipodi:r2="72.068939"
       sodipodi:arg1="1.0471976"
       sodipodi:arg2="1.5707963"
       inkscape:rounded="0"
       inkscape:randomized="0"
       d="m 234.27801,243.33027 -83.21805,-1e-5 -41.60902,-72.06894 41.60903,-72.068944 83.21805,4e-6 41.60902,72.06895 z"
       transform="matrix(1.113802,0,0,1.1102791,400.07206,-190.16474)" />
    <path
       sodipodi:type="star"
       style="fill:none;stroke:#ffffff;stroke-width:15;stroke-linecap:round;stroke-opacity:1;paint-order:stroke fill markers"
       id="path1-9-7-3-3"
       inkscape:flatsided="true"
       sodipodi:sides="6"
       sodipodi:cx="192.66899"
       sodipodi:cy="171.26132"
       sodipodi:r1="83.218048"
       sodipodi:r2="72.068939"
       sodipodi:arg1="1.0471976"
       sodipodi:arg2="1.5707963"
       inkscape:rounded="0"
       inkscape:randomized="0"
       d="m 234.27801,243.33027 -83.21805,-1e-5 -41.60902,-72.06894 41.60903,-72.068944 83.21805,4e-6 41.60902,72.06895 z"
       transform="matrix(1.113802,0,0,1.1102791,604.74053,-190.16474)" />
    <path
       sodipodi:type="star"
       style="fill:none;stroke:#ffffff;stroke-width:15;stroke-linecap:round;stroke-opacity:1;paint-order:stroke fill markers"
       id="path1-9-7-3-3-5"
       inkscape:flatsided="true"
       sodipodi:sides="6"
       sodipodi:cx="192.66899"
       sodipodi:cy="171.26132"
       sodipodi:r1="83.218048"
       sodipodi:r2="72.068939"
       sodipodi:arg1="1.0471976"
       sodipodi:arg2="1.5707963"
       inkscape:rounded="0"
       inkscape:randomized="0"
       d="m 234.27801,243.33027 -83.21805,-1e-5 -41.60902,-72.06894 41.60903,-72.068944 83.21805,4e-6 41.60902,72.06895 z"
       transform="matrix(1.113802,0,0,1.1102791,809.40901,-190.16474)" />
    <path
       sodipodi:type="star"
       style="fill:none;stroke:#ffffff;stroke-width:15;stroke-linecap:round;stroke-opacity:1;paint-order:stroke fill markers"
       id="path1-5"
       inkscape:flatsided="true"
       sodipodi:sides="6"
       sodipodi:cx="192.66899"
       sodipodi:cy="171.26132"
       sodipodi:r1="83.218048"
       sodipodi:r2="72.068939"
       sodipodi:arg1="1.0471976"
       sodipodi:arg2="1.5707963"
       inkscape:rounded="0"
       inkscape:randomized="0"
       d="m 234.27801,243.33027 -83.21805,-1e-5 -41.60902,-72.06894 41.60903,-72.068944 83.21805,4e-6 41.60902,72.06895 z"
       transform="matrix(1.113802,0,0,1.1102791,-112.16135,-13.477268)" />
    <path
       sodipodi:type="star"
       style="fill:none;stroke:#ffffff;stroke-width:15;stroke-linecap:round;stroke-opacity:1;paint-order:stroke fill markers"
       id="path1-9-6"
       inkscape:flatsided="true"
       sodipodi:sides="6"
       sodipodi:cx="192.66899"
       sodipodi:cy="171.26132"
       sodipodi:r1="83.218048"
       sodipodi:r2="72.068939"
       sodipodi:arg1="1.0471976"
       sodipodi:arg2="1.5707963"
       inkscape:rounded="0"
       inkscape:randomized="0"
       d="m 234.27801,243.33027 -83.21805,-1e-5 -41.60902,-72.06894 41.60903,-72.068944 83.21805,4e-6 41.60902,72.06895 z"
       transform="matrix(1.113802,0,0,1.1102791,92.507125,-13.477268)" />
    <path
       sodipodi:type="star"
       style="fill:none;stroke:#ffffff;stroke-width:15;stroke-linecap:round;stroke-opacity:1;paint-order:stroke fill markers"
       id="path1-9-7-9"
       inkscape:flatsided="true"
       sodipodi:sides="6"
       sodipodi:cx="192.66899"
       sodipodi:cy="171.26132"
       sodipodi:r1="83.218048"
       sodipodi:r2="72.068939"
       sodipodi:arg1="1.0471976"
       sodipodi:arg2="1.5707963"
       inkscape:rounded="0"
       inkscape:randomized="0"
       d="m 234.27801,243.33027 -83.21805,-1e-5 -41.60902,-72.06894 41.60903,-72.068944 83.21805,4e-6 41.60902,72.06895 z"
       transform="matrix(1.113802,0,0,1.1102791,297.1756,-13.477268)" />
    <path
       sodipodi:type="star"
       style="fill:none;stroke:#ffffff;stroke-width:15;stroke-linecap:round;stroke-opacity:1;paint-order:stroke fill markers"
       id="path1-9-7-3-37"
       inkscape:flatsided="true"
       sodipodi:sides="6"
       sodipodi:cx="192.66899"
       sodipodi:cy="171.26132"
       sodipodi:r1="83.218048"
       sodipodi:r2="72.068939"
       sodipodi:arg1="1.0471976"
       sodipodi:arg2="1.5707963"
       inkscape:rounded="0"
       inkscape:randomized="0"
       d="m 234.27801,243.33027 -83.21805,-1e-5 -41.60902,-72.06894 41.60903,-72.068944 83.21805,4e-6 41.60902,72.06895 z"
       transform="matrix(1.113802,0,0,1.1102791,502.4063,-13.477268)" />
    <path
       sodipodi:type="star"
       style="fill:none;stroke:#ffffff;stroke-width:15;stroke-linecap:round;stroke-opacity:1;paint-order:stroke fill markers"
       id="path1-9-7-3-3-4"
       inkscape:flatsided="true"
       sodipodi:sides="6"
       sodipodi:cx="192.66899"
       sodipodi:cy="171.26132"
       sodipodi:r1="83.218048"
       sodipodi:r2="72.068939"
       sodipodi:arg1="1.0471976"
       sodipodi:arg2="1.5707963"
       inkscape:rounded="0"
       inkscape:randomized="0"
       d="m 234.27801,243.33027 -83.21805,-1e-5 -41.60902,-72.06894 41.60903,-72.068944 83.21805,4e-6 41.60902,72.06895 z"
       transform="matrix(1.113802,0,0,1.1102791,707.07478,-13.477268)" />
    <path
       sodipodi:type="star"
       style="fill:none;stroke:#ffffff;stroke-width:15;stroke-linecap:round;stroke-opacity:1;paint-order:stroke fill markers"
       id="path1-9-7-3-3-5-5"
       inkscape:flatsided="true"
       sodipodi:sides="6"
       sodipodi:cx="192.66899"
       sodipodi:cy="171.26132"
       sodipodi:r1="83.218048"
       sodipodi:r2="72.068939"
       sodipodi:arg1="1.0471976"
       sodipodi:arg2="1.5707963"
       inkscape:rounded="0"
       inkscape:randomized="0"
       d="m 234.27801,243.33027 -83.21805,-1e-5 -41.60902,-72.06894 41.60903,-72.068944 83.21805,4e-6 41.60902,72.06895 z"
       transform="matrix(1.113802,0,0,1.1102791,911.74324,-13.477268)" />
    <path
       sodipodi:type="star"
       style="fill:none;stroke:#ffffff;stroke-width:15;stroke-linecap:round;stroke-opacity:1;paint-order:stroke fill markers"
       id="path1-5-4"
       inkscape:flatsided="true"
       sodipodi:sides="6"
       sodipodi:cx="192.66899"
       sodipodi:cy="171.26132"
       sodipodi:r1="83.218048"
       sodipodi:r2="72.068939"
       sodipodi:arg1="1.0471976"
       sodipodi:arg2="1.5707963"
       inkscape:rounded="0"
       inkscape:randomized="0"
       d="m 234.27801,243.33027 -83.21805,-1e-5 -41.60902,-72.06894 41.60903,-72.068944 83.21805,4e-6 41.60902,72.06895 z"
       transform="matrix(1.113802,0,0,1.1102791,-214.49557,163.21021)" />
    <path
       sodipodi:type="star"
       style="fill:none;stroke:#ffffff;stroke-width:15;stroke-linecap:round;stroke-opacity:1;paint-order:stroke fill markers"
       id="path1-9-6-4"
       inkscape:flatsided="true"
       sodipodi:sides="6"
       sodipodi:cx="192.66899"
       sodipodi:cy="171.26132"
       sodipodi:r1="83.218048"
       sodipodi:r2="72.068939"
       sodipodi:arg1="1.0471976"
       sodipodi:arg2="1.5707963"
       inkscape:rounded="0"
       inkscape:randomized="0"
       d="m 234.27801,243.33027 -83.21805,-1e-5 -41.60902,-72.06894 41.60903,-72.068944 83.21805,4e-6 41.60902,72.06895 z"
       transform="matrix(1.113802,0,0,1.1102791,-9.8271082,163.21021)" />
    <path
       sodipodi:type="star"
       style="fill:none;stroke:#ffffff;stroke-width:15;stroke-linecap:round;stroke-opacity:1;paint-order:stroke fill markers"
       id="path1-9-7-9-3"
       inkscape:flatsided="true"
       sodipodi:sides="6"
       sodipodi:cx="192.66899"
       sodipodi:cy="171.26132"
       sodipodi:r1="83.218048"
       sodipodi:r2="72.068939"
       sodipodi:arg1="1.0471976"
       sodipodi:arg2="1.5707963"
       inkscape:rounded="0"
       inkscape:randomized="0"
       d="m 234.27801,243.33027 -83.21805,-1e-5 -41.60902,-72.06894 41.60903,-72.068944 83.21805,4e-6 41.60902,72.06895 z"
       transform="matrix(1.113802,0,0,1.1102791,194.84136,163.21021)" />
    <path
       sodipodi:type="star"
       style="fill:none;stroke:#ffffff;stroke-width:15;stroke-linecap:round;stroke-opacity:1;paint-order:stroke fill markers"
       id="path1-9-7-3-37-0"
       inkscape:flatsided="true"
       sodipodi:sides="6"
       sodipodi:cx="192.66899"
       sodipodi:cy="171.26132"
       sodipodi:r1="83.218048"
       sodipodi:r2="72.068939"
       sodipodi:arg1="1.0471976"
       sodipodi:arg2="1.5707963"
       inkscape:rounded="0"
       inkscape:randomized="0"
       d="m 234.27801,243.33027 -83.21805,-1e-5 -41.60902,-72.06894 41.60903,-72.068944 83.21805,4e-6 41.60902,72.06895 z"
       transform="matrix(1.113802,0,0,1.1102791,400.07206,163.21021)" />
    <path
       sodipodi:type="star"
       style="fill:none;stroke:#ffffff;stroke-width:15;stroke-linecap:round;stroke-opacity:1;paint-order:stroke fill markers"
       id="path1-9-7-3-3-4-7"
       inkscape:flatsided="true"
       sodipodi:sides="6"
       sodipodi:cx="192.66899"
       sodipodi:cy="171.26132"
       sodipodi:r1="83.218048"
       sodipodi:r2="72.068939"
       sodipodi:arg1="1.0471976"
       sodipodi:arg2="1.5707963"
       inkscape:rounded="0"
       inkscape:randomized="0"
       d="m 234.27801,243.33027 -83.21805,-1e-5 -41.60902,-72.06894 41.60903,-72.068944 83.21805,4e-6 41.60902,72.06895 z"
       transform="matrix(1.113802,0,0,1.1102791,604.74053,163.21021)" />
    <path
       sodipodi:type="star"
       style="fill:none;stroke:#ffffff;stroke-width:15;stroke-linecap:round;stroke-opacity:1;paint-order:stroke fill markers"
       id="path1-9-7-3-3-5-5-8"
       inkscape:flatsided="true"
       sodipodi:sides="6"
       sodipodi:cx="192.66899"
       sodipodi:cy="171.26132"
       sodipodi:r1="83.218048"
       sodipodi:r2="72.068939"
       sodipodi:arg1="1.0471976"
       sodipodi:arg2="1.5707963"
       inkscape:rounded="0"
       inkscape:randomized="0"
       d="m 234.27801,243.33027 -83.21805,-1e-5 -41.60902,-72.06894 41.60903,-72.068944 83.21805,4e-6 41.60902,72.06895 z"
       transform="matrix(1.113802,0,0,1.1102791,809.40905,163.21021)" />
    <path
       sodipodi:type="star"
       style="fill:none;stroke:#ffffff;stroke-width:15;stroke-linecap:round;stroke-opacity:1;paint-order:stroke fill markers"
       id="path1-5-4-3"
       inkscape:flatsided="true"
       sodipodi:sides="6"
       sodipodi:cx="192.66899"
       sodipodi:cy="171.26132"
       sodipodi:r1="83.218048"
       sodipodi:r2="72.068939"
       sodipodi:arg1="1.0471976"
       sodipodi:arg2="1.5707963"
       inkscape:rounded="0"
       inkscape:randomized="0"
       d="m 234.27801,243.33027 -83.21805,-1e-5 -41.60902,-72.06894 41.60903,-72.068944 83.21805,4e-6 41.60902,72.06895 z"
       transform="matrix(1.113802,0,0,1.1102791,-112.16135,339.89769)" />
    <path
       sodipodi:type="star"
       style="fill:none;stroke:#ffffff;stroke-width:15;stroke-linecap:round;stroke-opacity:1;paint-order:stroke fill markers"
       id="path1-9-6-4-1"
       inkscape:flatsided="true"
       sodipodi:sides="6"
       sodipodi:cx="192.66899"
       sodipodi:cy="171.26132"
       sodipodi:r1="83.218048"
       sodipodi:r2="72.068939"
       sodipodi:arg1="1.0471976"
       sodipodi:arg2="1.5707963"
       inkscape:rounded="0"
       inkscape:randomized="0"
       d="m 234.27801,243.33027 -83.21805,-1e-5 -41.60902,-72.06894 41.60903,-72.068944 83.21805,4e-6 41.60902,72.06895 z"
       transform="matrix(1.113802,0,0,1.1102791,92.507131,339.89769)" />
    <path
       sodipodi:type="star"
       style="fill:none;stroke:#ffffff;stroke-width:15;stroke-linecap:round;stroke-opacity:1;paint-order:stroke fill markers"
       id="path1-9-7-9-3-4"
       inkscape:flatsided="true"
       sodipodi:sides="6"
       sodipodi:cx="192.66899"
       sodipodi:cy="171.26132"
       sodipodi:r1="83.218048"
       sodipodi:r2="72.068939"
       sodipodi:arg1="1.0471976"
       sodipodi:arg2="1.5707963"
       inkscape:rounded="0"
       inkscape:randomized="0"
       d="m 234.27801,243.33027 -83.21805,-1e-5 -41.60902,-72.06894 41.60903,-72.068944 83.21805,4e-6 41.60902,72.06895 z"
       transform="matrix(1.113802,0,0,1.1102791,297.1756,339.89769)" />
    <path
       sodipodi:type="star"
       style="fill:none;stroke:#ffffff;stroke-width:15;stroke-linecap:round;stroke-opacity:1;paint-order:stroke fill markers"
       id="path1-9-7-3-37-0-9"
       inkscape:flatsided="true"
       sodipodi:sides="6"
       sodipodi:cx="192.66899"
       sodipodi:cy="171.26132"
       sodipodi:r1="83.218048"
       sodipodi:r2="72.068939"
       sodipodi:arg1="1.0471976"
       sodipodi:arg2="1.5707963"
       inkscape:rounded="0"
       inkscape:randomized="0"
       d="m 234.27801,243.33027 -83.21805,-1e-5 -41.60902,-72.06894 41.60903,-72.068944 83.21805,4e-6 41.60902,72.06895 z"
       transform="matrix(1.113802,0,0,1.1102791,502.4063,339.89769)" />
    <path
       sodipodi:type="star"
       style="fill:none;stroke:#ffffff;stroke-width:15;stroke-linecap:round;stroke-opacity:1;paint-order:stroke fill markers"
       id="path1-9-7-3-3-4-7-2"
       inkscape:flatsided="true"
       sodipodi:sides="6"
       sodipodi:cx="192.66899"
       sodipodi:cy="171.26132"
       sodipodi:r1="83.218048"
       sodipodi:r2="72.068939"
       sodipodi:arg1="1.0471976"
       sodipodi:arg2="1.5707963"
       inkscape:rounded="0"
       inkscape:randomized="0"
       d="m 234.27801,243.33027 -83.21805,-1e-5 -41.60902,-72.06894 41.60903,-72.068944 83.21805,4e-6 41.60902,72.06895 z"
       transform="matrix(1.113802,0,0,1.1102791,707.07478,339.89769)" />
    <path
       sodipodi:type="star"
       style="fill:none;stroke:#ffffff;stroke-width:15;stroke-linecap:round;stroke-opacity:1;paint-order:stroke fill markers"
       id="path1-9-7-3-3-5-5-8-0"
       inkscape:flatsided="true"
       sodipodi:sides="6"
       sodipodi:cx="192.66899"
       sodipodi:cy="171.26132"
       sodipodi:r1="83.218048"
       sodipodi:r2="72.068939"
       sodipodi:arg1="1.0471976"
       sodipodi:arg2="1.5707963"
       inkscape:rounded="0"
       inkscape:randomized="0"
       d="m 234.27801,243.33027 -83.21805,-1e-5 -41.60902,-72.06894 41.60903,-72.068944 83.21805,4e-6 41.60902,72.06895 z"
       transform="matrix(1.113802,0,0,1.1102791,911.74328,339.89769)" />
    <path
       sodipodi:type="star"
       style="fill:none;stroke:#ffffff;stroke-width:15;stroke-linecap:round;stroke-opacity:1;paint-order:stroke fill markers"
       id="path1-5-4-3-6"
       inkscape:flatsided="true"
       sodipodi:sides="6"
       sodipodi:cx="192.66899"
       sodipodi:cy="171.26132"
       sodipodi:r1="83.218048"
       sodipodi:r2="72.068939"
       sodipodi:arg1="1.0471976"
       sodipodi:arg2="1.5707963"
       inkscape:rounded="0"
       inkscape:randomized="0"
       d="m 234.27801,243.33027 -83.21805,-1e-5 -41.60902,-72.06894 41.60903,-72.068944 83.21805,4e-6 41.60902,72.06895 z"
       transform="matrix(1.113802,0,0,1.1102791,-214.49557,516.58515)" />
    <path
       sodipodi:type="star"
       style="fill:none;stroke:#ffffff;stroke-width:15;stroke-linecap:round;stroke-opacity:1;paint-order:stroke fill markers"
       id="path1-9-6-4-1-6"
       inkscape:flatsided="true"
       sodipodi:sides="6"
       sodipodi:cx="192.66899"
       sodipodi:cy="171.26132"
       sodipodi:r1="83.218048"
       sodipodi:r2="72.068939"
       sodipodi:arg1="1.0471976"
       sodipodi:arg2="1.5707963"
       inkscape:rounded="0"
       inkscape:randomized="0"
       d="m 234.27801,243.33027 -83.21805,-1e-5 -41.60902,-72.06894 41.60903,-72.068944 83.21805,4e-6 41.60902,72.06895 z"
       transform="matrix(1.113802,0,0,1.1102791,-9.8271046,516.58515)" />
    <path
       sodipodi:type="star"
       style="fill:none;stroke:#ffffff;stroke-width:15;stroke-linecap:round;stroke-opacity:1;paint-order:stroke fill markers"
       id="path1-9-7-9-3-4-4"
       inkscape:flatsided="true"
       sodipodi:sides="6"
       sodipodi:cx="192.66899"
       sodipodi:cy="171.26132"
       sodipodi:r1="83.218048"
       sodipodi:r2="72.068939"
       sodipodi:arg1="1.0471976"
       sodipodi:arg2="1.5707963"
       inkscape:rounded="0"
       inkscape:randomized="0"
       d="m 234.27801,243.33027 -83.21805,-1e-5 -41.60902,-72.06894 41.60903,-72.068944 83.21805,4e-6 41.60902,72.06895 z"
       transform="matrix(1.113802,0,0,1.1102791,194.84136,516.58515)" />
    <path
       sodipodi:type="star"
       style="fill:none;stroke:#ffffff;stroke-width:15;stroke-linecap:round;stroke-opacity:1;paint-order:stroke fill markers"
       id="path1-9-7-3-37-0-9-9"
       inkscape:flatsided="true"
       sodipodi:sides="6"
       sodipodi:cx="192.66899"
       sodipodi:cy="171.26132"
       sodipodi:r1="83.218048"
       sodipodi:r2="72.068939"
       sodipodi:arg1="1.0471976"
       sodipodi:arg2="1.5707963"
       inkscape:rounded="0"
       inkscape:randomized="0"
       d="m 234.27801,243.33027 -83.21805,-1e-5 -41.60902,-72.06894 41.60903,-72.068944 83.21805,4e-6 41.60902,72.06895 z"
       transform="matrix(1.113802,0,0,1.1102791,400.07206,516.58515)" />
    <path
       sodipodi:type="star"
       style="fill:none;stroke:#ffffff;stroke-width:15;stroke-linecap:round;stroke-opacity:1;paint-order:stroke fill markers"
       id="path1-9-7-3-3-4-7-2-5"
       inkscape:flatsided="true"
       sodipodi:sides="6"
       sodipodi:cx="192.66899"
       sodipodi:cy="171.26132"
       sodipodi:r1="83.218048"
       sodipodi:r2="72.068939"
       sodipodi:arg1="1.0471976"
       sodipodi:arg2="1.5707963"
       inkscape:rounded="0"
       inkscape:randomized="0"
       d="m 234.27801,243.33027 -83.21805,-1e-5 -41.60902,-72.06894 41.60903,-72.068944 83.21805,4e-6 41.60902,72.06895 z"
       transform="matrix(1.113802,0,0,1.1102791,604.74053,516.58515)" />
    <path
       sodipodi:type="star"
       style="fill:none;stroke:#ffffff;stroke-width:15;stroke-linecap:round;stroke-opacity:1;paint-order:stroke fill markers"
       id="path1-9-7-3-3-5-5-8-0-0"
       inkscape:flatsided="true"
       sodipodi:sides="6"
       sodipodi:cx="192.66899"
       sodipodi:cy="171.26132"
       sodipodi:r1="83.218048"
       sodipodi:r2="72.068939"
       sodipodi:arg1="1.0471976"
       sodipodi:arg2="1.5707963"
       inkscape:rounded="0"
       inkscape:randomized="0"
       d="m 234.27801,243.33027 -83.21805,-1e-5 -41.60902,-72.06894 41.60903,-72.068944 83.21805,4e-6 41.60902,72.06895 z"
       transform="matrix(1.113802,0,0,1.1102791,809.40905,516.58515)" />
    <path
       sodipodi:type="star"
       style="fill:none;stroke:#ffffff;stroke-width:15;stroke-linecap:round;stroke-opacity:1;paint-order:stroke fill markers"
       id="path1-5-4-3-6-7"
       inkscape:flatsided="true"
       sodipodi:sides="6"
       sodipodi:cx="192.66899"
       sodipodi:cy="171.26132"
       sodipodi:r1="83.218048"
       sodipodi:r2="72.068939"
       sodipodi:arg1="1.0471976"
       sodipodi:arg2="1.5707963"
       inkscape:rounded="0"
       inkscape:randomized="0"
       d="m 234.27801,243.33027 -83.21805,-1e-5 -41.60902,-72.06894 41.60903,-72.068944 83.21805,4e-6 41.60902,72.06895 z"
       transform="matrix(1.113802,0,0,1.1102791,-112.16135,693.27264)" />
    <path
       sodipodi:type="star"
       style="fill:none;stroke:#ffffff;stroke-width:15;stroke-linecap:round;stroke-opacity:1;paint-order:stroke fill markers"
       id="path1-9-6-4-1-6-2"
       inkscape:flatsided="true"
       sodipodi:sides="6"
       sodipodi:cx="192.66899"
       sodipodi:cy="171.26132"
       sodipodi:r1="83.218048"
       sodipodi:r2="72.068939"
       sodipodi:arg1="1.0471976"
       sodipodi:arg2="1.5707963"
       inkscape:rounded="0"
       inkscape:randomized="0"
       d="m 234.27801,243.33027 -83.21805,-1e-5 -41.60902,-72.06894 41.60903,-72.068944 83.21805,4e-6 41.60902,72.06895 z"
       transform="matrix(1.113802,0,0,1.1102791,92.507131,693.27264)" />
    <path
       sodipodi:type="star"
       style="fill:none;stroke:#ffffff;stroke-width:15;stroke-linecap:round;stroke-opacity:1;paint-order:stroke fill markers"
       id="path1-9-7-9-3-4-4-7"
       inkscape:flatsided="true"
       sodipodi:sides="6"
       sodipodi:cx="192.66899"
       sodipodi:cy="171.26132"
       sodipodi:r1="83.218048"
       sodipodi:r2="72.068939"
       sodipodi:arg1="1.0471976"
       sodipodi:arg2="1.5707963"
       inkscape:rounded="0"
       inkscape:randomized="0"
       d="m 234.27801,243.33027 -83.21805,-1e-5 -41.60902,-72.06894 41.60903,-72.068944 83.21805,4e-6 41.60902,72.06895 z"
       transform="matrix(1.113802,0,0,1.1102791,297.1756,693.27264)" />
    <path
       sodipodi:type="star"
       style="fill:none;stroke:#ffffff;stroke-width:15;stroke-linecap:round;stroke-opacity:1;paint-order:stroke fill markers"
       id="path1-9-7-3-37-0-9-9-2"
       inkscape:flatsided="true"
       sodipodi:sides="6"
       sodipodi:cx="192.66899"
       sodipodi:cy="171.26132"
       sodipodi:r1="83.218048"
       sodipodi:r2="72.068939"
       sodipodi:arg1="1.0471976"
       sodipodi:arg2="1.5707963"
       inkscape:rounded="0"
       inkscape:randomized="0"
       d="m 234.27801,243.33027 -83.21805,-1e-5 -41.60902,-72.06894 41.60903,-72.068944 83.21805,4e-6 41.60902,72.06895 z"
       transform="matrix(1.113802,0,0,1.1102791,502.4063,693.27264)" />
    <path
       sodipodi:type="star"
       style="fill:none;stroke:#ffffff;stroke-width:15;stroke-linecap:round;stroke-opacity:1;paint-order:stroke fill markers"
       id="path1-9-7-3-3-4-7-2-5-2"
       inkscape:flatsided="true"
       sodipodi:sides="6"
       sodipodi:cx="192.66899"
       sodipodi:cy="171.26132"
       sodipodi:r1="83.218048"
       sodipodi:r2="72.068939"
       sodipodi:arg1="1.0471976"
       sodipodi:arg2="1.5707963"
       inkscape:rounded="0"
       inkscape:randomized="0"
       d="m 234.27801,243.33027 -83.21805,-1e-5 -41.60902,-72.06894 41.60903,-72.068944 83.21805,4e-6 41.60902,72.06895 z"
       transform="matrix(1.113802,0,0,1.1102791,707.07478,693.27264)" />
    <path
       sodipodi:type="star"
       style="fill:none;stroke:#ffffff;stroke-width:15;stroke-linecap:round;stroke-opacity:1;paint-order:stroke fill markers"
       id="path1-9-7-3-3-5-5-8-0-0-6"
       inkscape:flatsided="true"
       sodipodi:sides="6"
       sodipodi:cx="192.66899"
       sodipodi:cy="171.26132"
       sodipodi:r1="83.218048"
       sodipodi:r2="72.068939"
       sodipodi:arg1="1.0471976"
       sodipodi:arg2="1.5707963"
       inkscape:rounded="0"
       inkscape:randomized="0"
       d="m 234.27801,243.33027 -83.21805,-1e-5 -41.60902,-72.06894 41.60903,-72.068944 83.21805,4e-6 41.60902,72.06895 z"
       transform="matrix(1.113802,0,0,1.1102791,911.74328,693.27264)" />
    <path
       sodipodi:type="star"
       style="fill:none;stroke:#ffffff;stroke-width:15;stroke-linecap:round;stroke-opacity:1;paint-order:stroke fill markers"
       id="path1-5-4-3-6-7-9"
       inkscape:flatsided="true"
       sodipodi:sides="6"
       sodipodi:cx="192.66899"
       sodipodi:cy="171.26132"
       sodipodi:r1="83.218048"
       sodipodi:r2="72.068939"
       sodipodi:arg1="1.0471976"
       sodipodi:arg2="1.5707963"
       inkscape:rounded="0"
       inkscape:randomized="0"
       d="m 234.27801,243.33027 -83.21805,-1e-5 -41.60902,-72.06894 41.60903,-72.068944 83.21805,4e-6 41.60902,72.06895 z"
       transform="matrix(1.113802,0,0,1.1102791,-214.49557,869.96012)" />
    <path
       sodipodi:type="star"
       style="fill:none;stroke:#ffffff;stroke-width:15;stroke-linecap:round;stroke-opacity:1;paint-order:stroke fill markers"
       id="path1-9-6-4-1-6-2-1"
       inkscape:flatsided="true"
       sodipodi:sides="6"
       sodipodi:cx="192.66899"
       sodipodi:cy="171.26132"
       sodipodi:r1="83.218048"
       sodipodi:r2="72.068939"
       sodipodi:arg1="1.0471976"
       sodipodi:arg2="1.5707963"
       inkscape:rounded="0"
       inkscape:randomized="0"
       d="m 234.27801,243.33027 -83.21805,-1e-5 -41.60902,-72.06894 41.60903,-72.068944 83.21805,4e-6 41.60902,72.06895 z"
       transform="matrix(1.113802,0,0,1.1102791,-9.8271046,869.96012)" />
    <path
       sodipodi:type="star"
       style="fill:none;stroke:#ffffff;stroke-width:15;stroke-linecap:round;stroke-opacity:1;paint-order:stroke fill markers"
       id="path1-9-7-9-3-4-4-7-7"
       inkscape:flatsided="true"
       sodipodi:sides="6"
       sodipodi:cx="192.66899"
       sodipodi:cy="171.26132"
       sodipodi:r1="83.218048"
       sodipodi:r2="72.068939"
       sodipodi:arg1="1.0471976"
       sodipodi:arg2="1.5707963"
       inkscape:rounded="0"
       inkscape:randomized="0"
       d="m 234.27801,243.33027 -83.21805,-1e-5 -41.60902,-72.06894 41.60903,-72.068944 83.21805,4e-6 41.60902,72.06895 z"
       transform="matrix(1.113802,0,0,1.1102791,194.84136,869.96012)" />
    <path
       sodipodi:type="star"
       style="fill:none;stroke:#ffffff;stroke-width:15;stroke-linecap:round;stroke-opacity:1;paint-order:stroke fill markers"
       id="path1-9-7-3-37-0-9-9-2-7"
       inkscape:flatsided="true"
       sodipodi:sides="6"
       sodipodi:cx="192.66899"
       sodipodi:cy="171.26132"
       sodipodi:r1="83.218048"
       sodipodi:r2="72.068939"
       sodipodi:arg1="1.0471976"
       sodipodi:arg2="1.5707963"
       inkscape:rounded="0"
       inkscape:randomized="0"
       d="m 234.27801,243.33027 -83.21805,-1e-5 -41.60902,-72.06894 41.60903,-72.068944 83.21805,4e-6 41.60902,72.06895 z"
       transform="matrix(1.113802,0,0,1.1102791,400.07206,869.96012)" />
    <path
       sodipodi:type="star"
       style="fill:none;stroke:#ffffff;stroke-width:15;stroke-linecap:round;stroke-opacity:1;paint-order:stroke fill markers"
       id="path1-9-7-3-3-4-7-2-5-2-1"
       inkscape:flatsided="true"
       sodipodi:sides="6"
       sodipodi:cx="192.66899"
       sodipodi:cy="171.26132"
       sodipodi:r1="83.218048"
       sodipodi:r2="72.068939"
       sodipodi:arg1="1.0471976"
       sodipodi:arg2="1.5707963"
       inkscape:rounded="0"
       inkscape:randomized="0"
       d="m 234.27801,243.33027 -83.21805,-1e-5 -41.60902,-72.06894 41.60903,-72.068944 83.21805,4e-6 41.60902,72.06895 z"
       transform="matrix(1.113802,0,0,1.1102791,604.74053,869.96012)" />
    <path
       sodipodi:type="star"
       style="fill:none;stroke:#ffffff;stroke-width:15;stroke-linecap:round;stroke-opacity:1;paint-order:stroke fill markers"
       id="path1-9-7-3-3-5-5-8-0-0-6-1"
       inkscape:flatsided="true"
       sodipodi:sides="6"
       sodipodi:cx="192.66899"
       sodipodi:cy="171.26132"
       sodipodi:r1="83.218048"
       sodipodi:r2="72.068939"
       sodipodi:arg1="1.0471976"
       sodipodi:arg2="1.5707963"
       inkscape:rounded="0"
       inkscape:randomized="0"
       d="m 234.27801,243.33027 -83.21805,-1e-5 -41.60902,-72.06894 41.60903,-72.068944 83.21805,4e-6 41.60902,72.06895 z"
       transform="matrix(1.113802,0,0,1.1102791,809.40905,869.96012)" />
  </g>
</svg>
