<?xml version="1.0" encoding="UTF-8" standalone="no"?>
<!-- Created with Inkscape (http://www.inkscape.org/) -->

<svg
   width="256"
   height="256"
   viewBox="0 0 67.733332 67.733333"
   version="1.1"
   id="svg1"
   inkscape:export-filename="health_pad.png"
   inkscape:export-xdpi="96"
   inkscape:export-ydpi="96"
   inkscape:version="1.4.4 (dcaf3e7, 2026-05-05)"
   sodipodi:docname="health_pad.svg"
   xmlns:inkscape="http://www.inkscape.org/namespaces/inkscape"
   xmlns:sodipodi="http://sodipodi.sourceforge.net/DTD/sodipodi-0.dtd"
   xmlns="http://www.w3.org/2000/svg"
   xmlns:svg="http://www.w3.org/2000/svg">
  <sodipodi:namedview
     id="namedview1"
     pagecolor="#ffffff"
     bordercolor="#000000"
     borderopacity="0.25"
     inkscape:showpageshadow="2"
     inkscape:pageopacity="0.0"
     inkscape:pagecheckerboard="0"
     inkscape:deskcolor="#d1d1d1"
     inkscape:document-units="mm"
     inkscape:zoom="3.0966049"
     inkscape:cx="124.16825"
     inkscape:cy="131.2728"
     inkscape:window-width="1876"
     inkscape:window-height="996"
     inkscape:window-x="0"
     inkscape:window-y="0"
     inkscape:window-maximized="1"
     inkscape:current-layer="layer1" />
  <defs
     id="defs1" />
  <g
     inkscape:label="inside"
     inkscape:groupmode="layer"
     id="layer1">
    <path
       style="fill:#008000;stroke:#17ec00;stroke-width:8.63052;paint-order:stroke fill markers"
       d="m 66.844695,208.36851 c -4.09626,-7.09595 -16.212243,-28.07838 -26.924406,-46.62763 l -19.476662,-33.72591 4.514829,-7.83362 c 2.483156,-4.30849 14.541111,-25.199562 26.795456,-46.424607 l 22.280627,-38.590989 53.899671,-0.116038 53.89967,-0.116037 26.42172,45.785847 c 14.53195,25.182214 26.62353,46.119064 26.87017,46.526334 0.35108,0.57969 -5.39356,10.86628 -26.45574,47.37273 l -26.90419,46.63224 -53.7367,0.01 -53.736699,0.01 z"
       id="path2"
       transform="scale(0.26458333)"
       inkscape:label="bg" />
    <g
       id="g6"
       inkscape:label="clock"
       style="display:none"
       transform="matrix(0.89148026,0,0,0.89148026,3.6624546,3.6780677)">
      <circle
         style="fill:#008000;stroke:#17ec00;stroke-width:6.15209;paint-order:stroke fill markers"
         id="path3"
         cx="33.749218"
         cy="33.893074"
         r="17.39506"
         inkscape:label="shell" />
      <circle
         style="fill:#00ff00;stroke:none;stroke-width:4.99999;paint-order:stroke fill markers"
         id="path4"
         cx="33.749218"
         cy="33.893074"
         r="2.0079114"
         inkscape:label="middle" />
      <g
         id="g5"
         inkscape:label="long_hand">
        <rect
           style="fill:#00ff00;stroke:none;stroke-width:3.14447;paint-order:stroke fill markers"
           id="rect3"
           width="1.4525315"
           height="14.610761"
           x="33.022953"
           y="19.282314"
           ry="0"
           inkscape:label="line" />
        <path
           sodipodi:type="star"
           style="fill:#00ff00;stroke:none;stroke-width:4.99999;paint-order:stroke fill markers"
           id="path5"
           inkscape:flatsided="true"
           sodipodi:sides="3"
           sodipodi:cx="33.022953"
           sodipodi:cy="19.282314"
           sodipodi:r1="3.0694413"
           sodipodi:r2="1.5347207"
           sodipodi:arg1="0.52359878"
           sodipodi:arg2="1.5707963"
           inkscape:rounded="0"
           inkscape:randomized="0"
           d="m 35.681167,20.817035 -5.316428,0 2.658214,-4.604162 z"
           inkscape:transform-center-y="-0.55770572"
           transform="matrix(0.72678464,0,0,0.72678464,9.7486437,5.8259301)"
           inkscape:label="triangle" />
      </g>
      <g
         id="g7"
         inkscape:label="short_hand"
         transform="rotate(120,32.663946,32.013326)">
        <rect
           style="fill:#00ff00;stroke:none;stroke-width:2.70989;paint-order:stroke fill markers"
           id="rect6"
           width="1.4525315"
           height="10.851267"
           x="33.022953"
           y="19.282314"
           ry="0"
           inkscape:label="line" />
        <path
           sodipodi:type="star"
           style="fill:#00ff00;stroke:none;stroke-width:4.99999;paint-order:stroke fill markers"
           id="path6"
           inkscape:flatsided="true"
           sodipodi:sides="3"
           sodipodi:cx="33.022953"
           sodipodi:cy="19.282314"
           sodipodi:r1="3.0694413"
           sodipodi:r2="1.5347207"
           sodipodi:arg1="0.52359878"
           sodipodi:arg2="1.5707963"
           inkscape:rounded="0"
           inkscape:randomized="0"
           d="m 35.681167,20.817035 -5.316428,0 2.658214,-4.604162 z"
           inkscape:transform-center-y="-0.55770572"
           transform="matrix(0.72678464,0,0,0.72678464,9.7486437,5.8259301)"
           inkscape:label="triangle" />
      </g>
    </g>
    <g
       id="g8"
       inkscape:label="heart"
       style="display:none">
      <path
         d="m 27.060164,19.67368 a 8.9384294,8.9384294 0 0 0 -6.320567,2.618501 8.9384294,8.9384294 0 0 0 0,12.640402 l 0.0037,0.0037 a 8.9384294,8.9384294 0 0 0 0.501354,0.463864 l -0.01912,0.01912 12.641138,12.640403 12.640403,-12.640403 -0.01838,-0.01912 a 8.9384294,8.9384294 0 0 0 0.499146,-0.461657 l 0.0059,-0.0059 a 8.9384294,8.9384294 0 0 0 0,-12.640402 8.9384294,8.9384294 0 0 0 -12.641138,0 8.9384294,8.9384294 0 0 0 -0.467538,0.505028 8.9384294,8.9384294 0 0 0 -0.01838,0.02133 8.9384294,8.9384294 0 0 0 -0.01912,-0.02133 v -7.35e-4 a 8.9384294,8.9384294 0 0 0 -0.4676,-0.504317 8.9384294,8.9384294 0 0 0 -6.319833,-2.618501 z"
         style="fill:#00ff00;stroke-width:7.11272;paint-order:stroke fill markers"
         id="path8"
         inkscape:label="heart" />
    </g>
    <g
       id="g10"
       inkscape:label="expand"
       style="display:none">
      <circle
         style="fill:#00ff00;stroke:none;stroke-width:4.99999;paint-order:stroke fill markers"
         id="path9"
         cx="33.866669"
         cy="33.866665"
         r="7.4762659"
         inkscape:label="core" />
      <g
         id="g11"
         inkscape:label="arrow_tl"
         transform="matrix(0.61557779,-0.355404,0.355404,0.61557779,0.52698511,5.8542287)">
        <rect
           style="fill:#00ff00;stroke:none;stroke-width:4.83234;paint-order:stroke fill markers"
           id="rect9"
           width="3.3322785"
           height="21.787975"
           x="19.13924"
           y="28.452532" />
        <path
           sodipodi:type="star"
           style="fill:#00ff00;stroke:none;stroke-width:4.99999;paint-order:stroke fill markers"
           id="path10"
           inkscape:flatsided="true"
           sodipodi:sides="3"
           sodipodi:cx="18.113924"
           sodipodi:cy="23.240507"
           sodipodi:r1="5.8001022"
           sodipodi:r2="2.9000511"
           sodipodi:arg1="0.52359878"
           sodipodi:arg2="1.5707963"
           inkscape:rounded="0"
           inkscape:randomized="0"
           d="m 23.13696,26.140558 -10.046072,0 5.023036,-8.700153 z"
           inkscape:transform-center-y="-1.4500256"
           transform="translate(2.6914555,2.9050634)" />
      </g>
      <g
         id="g12"
         inkscape:label="arrow_tr"
         transform="matrix(-0.61557779,-0.355404,-0.355404,0.61557779,67.206352,5.3415705)">
        <rect
           style="fill:#00ff00;stroke:none;stroke-width:4.83234;paint-order:stroke fill markers"
           id="rect11"
           width="3.3322785"
           height="21.787975"
           x="19.13924"
           y="28.452532" />
        <path
           sodipodi:type="star"
           style="fill:#00ff00;stroke:none;stroke-width:4.99999;paint-order:stroke fill markers"
           id="path11"
           inkscape:flatsided="true"
           sodipodi:sides="3"
           sodipodi:cx="18.113924"
           sodipodi:cy="23.240507"
           sodipodi:r1="5.8001022"
           sodipodi:r2="2.9000511"
           sodipodi:arg1="0.52359878"
           sodipodi:arg2="1.5707963"
           inkscape:rounded="0"
           inkscape:randomized="0"
           d="m 23.13696,26.140558 -10.046072,0 5.023036,-8.700153 z"
           inkscape:transform-center-y="-1.4500256"
           transform="translate(2.6914555,2.9050634)" />
      </g>
      <g
         id="g13"
         inkscape:label="arrow_bl"
         transform="matrix(0.61557779,0.355404,0.355404,-0.61557779,0.52698511,61.51081)">
        <rect
           style="fill:#00ff00;stroke:none;stroke-width:4.83234;paint-order:stroke fill markers"
           id="rect12"
           width="3.3322785"
           height="21.787975"
           x="19.13924"
           y="28.452532" />
        <path
           sodipodi:type="star"
           style="fill:#00ff00;stroke:none;stroke-width:4.99999;paint-order:stroke fill markers"
           id="path12"
           inkscape:flatsided="true"
           sodipodi:sides="3"
           sodipodi:cx="18.113924"
           sodipodi:cy="23.240507"
           sodipodi:r1="5.8001022"
           sodipodi:r2="2.9000511"
           sodipodi:arg1="0.52359878"
           sodipodi:arg2="1.5707963"
           inkscape:rounded="0"
           inkscape:randomized="0"
           d="m 23.13696,26.140558 -10.046072,0 5.023036,-8.700153 z"
           inkscape:transform-center-y="-1.4500256"
           transform="translate(2.6914555,2.9050634)" />
      </g>
      <g
         id="g14"
         inkscape:label="arrow_br"
         transform="matrix(-0.61557779,0.355404,-0.355404,-0.61557779,67.206352,62.023468)">
        <rect
           style="fill:#00ff00;stroke:none;stroke-width:4.83234;paint-order:stroke fill markers"
           id="rect13"
           width="3.3322785"
           height="21.787975"
           x="19.13924"
           y="28.452532" />
        <path
           sodipodi:type="star"
           style="fill:#00ff00;stroke:none;stroke-width:4.99999;paint-order:stroke fill markers"
           id="path13"
           inkscape:flatsided="true"
           sodipodi:sides="3"
           sodipodi:cx="18.113924"
           sodipodi:cy="23.240507"
           sodipodi:r1="5.8001022"
           sodipodi:r2="2.9000511"
           sodipodi:arg1="0.52359878"
           sodipodi:arg2="1.5707963"
           inkscape:rounded="0"
           inkscape:randomized="0"
           d="m 23.13696,26.140558 -10.046072,0 5.023036,-8.700153 z"
           inkscape:transform-center-y="-1.4500256"
           transform="translate(2.6914555,2.9050634)" />
      </g>
    </g>
  </g>
  <path
     sodipodi:type="star"
     style="fill:none;stroke:#17ec00;stroke-width:2.82952;stroke-linecap:butt;stroke-dasharray:none;stroke-opacity:1;paint-order:stroke fill markers;stroke-miterlimit:4"
     id="path1"
     inkscape:flatsided="true"
     sodipodi:sides="6"
     sodipodi:cx="1.3291817"
     sodipodi:cy="2.1750247"
     sodipodi:r1="19.142673"
     sodipodi:r2="16.578041"
     sodipodi:arg1="1.0471976"
     sodipodi:arg2="1.5707963"
     inkscape:rounded="0"
     inkscape:randomized="0"
     d="m 10.900518,18.753067 -19.1426739,-1e-6 -9.5713361,-16.5780422 9.5713377,-16.5780408 19.1426733,1e-6 9.571336,16.5780417 z"
     transform="matrix(1.6300629,0,0,1.6300629,31.700018,30.321239)"
     inkscape:label="shell" />
</svg>
