<?xml version="1.0" encoding="UTF-8" standalone="no"?>
<!-- Created with Inkscape (http://www.inkscape.org/) -->

<svg
   width="256"
   height="256"
   viewBox="0 0 67.733332 67.733333"
   version="1.1"
   id="svg1"
   inkscape:export-filename="filled.png"
   inkscape:export-xdpi="96"
   inkscape:export-ydpi="96"
   inkscape:version="1.4.4 (dcaf3e7, 2026-05-05)"
   sodipodi:docname="overlays.svg"
   xmlns:inkscape="http://www.inkscape.org/namespaces/inkscape"
   xmlns:sodipodi="http://sodipodi.sourceforge.net/DTD/sodipodi-0.dtd"
   xmlns="http://www.w3.org/2000/svg"
   xmlns:svg="http://www.w3.org/2000/svg">
  <sodipodi:namedview
     id="namedview1"
     pagecolor="#ffffff"
     bordercolor="#000000"
     borderopacity="0.25"
     inkscape:showpageshadow="2"
     inkscape:pageopacity="0.0"
     inkscape:pagecheckerboard="0"
     inkscape:deskcolor="#d1d1d1"
     inkscape:document-units="mm"
     inkscape:zoom="3.0966049"
     inkscape:cx="120.9389"
     inkscape:cy="138.70029"
     inkscape:window-width="1876"
     inkscape:window-height="996"
     inkscape:window-x="0"
     inkscape:window-y="0"
     inkscape:window-maximized="1"
     inkscape:current-layer="g16" />
  <defs
     id="defs1">
    <inkscape:path-effect
       effect="perspective-envelope"
       up_left_point="29.438462,25.012241"
       up_right_point="22.29929,41.891725"
       down_left_point="3.4178539,22.938385"
       down_right_point="15.778471,42.481557"
       id="path-effect57"
       is_visible="true"
       lpeversion="1"
       deform_type="perspective"
       horizontal_mirror="false"
       vertical_mirror="false"
       overflow_perspective="false" />
    <inkscape:path-effect
       effect="perspective-envelope"
       up_left_point="25.57506,17.653961"
       up_right_point="22.29929,41.891725"
       down_left_point="3.4178539,22.938385"
       down_right_point="12.254045,44.329051"
       id="path-effect55"
       is_visible="true"
       lpeversion="1"
       deform_type="perspective"
       horizontal_mirror="false"
       vertical_mirror="false"
       overflow_perspective="false" />
    <inkscape:path-effect
       effect="perspective-envelope"
       up_left_point="19.419083,13.009187"
       up_right_point="23.117303,36.414471"
       down_left_point="3.4178539,22.938385"
       down_right_point="16.067295,44.133477"
       id="path-effect53"
       is_visible="true"
       lpeversion="1"
       deform_type="perspective"
       horizontal_mirror="false"
       vertical_mirror="false"
       overflow_perspective="false" />
    <inkscape:path-effect
       effect="perspective-envelope"
       up_left_point="11.32864,12.049498"
       up_right_point="30.349714,29.104193"
       down_left_point="3.4178539,22.938385"
       down_right_point="16.067295,44.133477"
       id="path-effect51"
       is_visible="true"
       lpeversion="1"
       deform_type="perspective"
       horizontal_mirror="false"
       vertical_mirror="false"
       overflow_perspective="false" />
    <inkscape:path-effect
       effect="perspective-envelope"
       up_left_point="9.9879758,12.366916"
       up_right_point="27.530864,18.118333"
       down_left_point="3.4178539,22.938385"
       down_right_point="17.550873,30.941859"
       id="path-effect49"
       is_visible="true"
       lpeversion="1"
       deform_type="perspective"
       horizontal_mirror="false"
       vertical_mirror="false"
       overflow_perspective="false" />
    <inkscape:path-effect
       effect="perspective-envelope"
       up_left_point="19.174331,16.275229"
       up_right_point="24.662951,24.22101"
       down_left_point="3.9711059,17.133241"
       down_right_point="-3.8295,47.265097"
       id="path-effect47"
       is_visible="true"
       lpeversion="1"
       deform_type="perspective"
       horizontal_mirror="false"
       vertical_mirror="false"
       overflow_perspective="false" />
    <inkscape:path-effect
       effect="perspective-envelope"
       up_left_point="26.953947,19.72996"
       up_right_point="27.334488,22.978752"
       down_left_point="-0.54859668,7.2547248"
       down_right_point="3.5361929,24.970759"
       id="path-effect45"
       is_visible="true"
       lpeversion="1"
       deform_type="perspective"
       horizontal_mirror="false"
       vertical_mirror="false"
       overflow_perspective="false" />
    <inkscape:path-effect
       effect="perspective-envelope"
       up_left_point="8.8595249,-7.6541995"
       up_right_point="31.927851,15.613319"
       down_left_point="5.0392288,10.423521"
       down_right_point="12.574479,28.153201"
       id="path-effect43"
       is_visible="true"
       lpeversion="1"
       deform_type="perspective"
       horizontal_mirror="false"
       vertical_mirror="false"
       overflow_perspective="false" />
    <inkscape:path-effect
       effect="perspective-envelope"
       up_left_point="8.8595249,-7.6541995"
       up_right_point="26.572785,-7.7418692"
       down_left_point="4.6638651,12.320088"
       down_right_point="20.354608,19.961915"
       id="path-effect41"
       is_visible="true"
       lpeversion="1"
       deform_type="perspective"
       horizontal_mirror="false"
       vertical_mirror="false"
       overflow_perspective="false" />
    <inkscape:path-effect
       effect="perspective-envelope"
       up_left_point="8.8595249,-7.6541995"
       up_right_point="26.572785,-7.7418692"
       down_left_point="4.6638651,12.320088"
       down_right_point="20.354608,19.961915"
       id="path-effect2"
       is_visible="true"
       lpeversion="1"
       deform_type="perspective"
       horizontal_mirror="false"
       vertical_mirror="false"
       overflow_perspective="false" />
    <inkscape:path-effect
       effect="perspective-envelope"
       up_left_point="8.8595249,-7.6541995"
       up_right_point="31.927851,15.613319"
       down_left_point="5.0392288,10.423521"
       down_right_point="12.574479,28.153201"
       id="path-effect2-7"
       is_visible="true"
       lpeversion="1"
       deform_type="perspective"
       horizontal_mirror="false"
       vertical_mirror="false"
       overflow_perspective="false" />
    <inkscape:path-effect
       effect="perspective-envelope"
       up_left_point="26.953947,19.72996"
       up_right_point="27.334488,22.978752"
       down_left_point="-0.54859668,7.2547248"
       down_right_point="3.5361929,24.970759"
       id="path-effect2-7-2"
       is_visible="true"
       lpeversion="1"
       deform_type="perspective"
       horizontal_mirror="false"
       vertical_mirror="false"
       overflow_perspective="false" />
    <inkscape:path-effect
       effect="perspective-envelope"
       up_left_point="19.174331,16.275229"
       up_right_point="24.662951,24.22101"
       down_left_point="3.9711059,17.133241"
       down_right_point="-3.8295,47.265097"
       id="path-effect2-7-2-0"
       is_visible="true"
       lpeversion="1"
       deform_type="perspective"
       horizontal_mirror="false"
       vertical_mirror="false"
       overflow_perspective="false" />
    <inkscape:path-effect
       effect="perspective-envelope"
       up_left_point="9.9879758,12.366916"
       up_right_point="27.530864,18.118333"
       down_left_point="3.4178539,22.938385"
       down_right_point="17.550873,30.941859"
       id="path-effect2-7-2-0-6"
       is_visible="true"
       lpeversion="1"
       deform_type="perspective"
       horizontal_mirror="false"
       vertical_mirror="false"
       overflow_perspective="false" />
    <inkscape:path-effect
       effect="perspective-envelope"
       up_left_point="11.32864,12.049498"
       up_right_point="30.349714,29.104193"
       down_left_point="3.4178539,22.938385"
       down_right_point="16.067295,44.133477"
       id="path-effect2-7-2-0-6-3"
       is_visible="true"
       lpeversion="1"
       deform_type="perspective"
       horizontal_mirror="false"
       vertical_mirror="false"
       overflow_perspective="false" />
    <inkscape:path-effect
       effect="perspective-envelope"
       up_left_point="19.419083,13.009187"
       up_right_point="23.117303,36.414471"
       down_left_point="3.4178539,22.938385"
       down_right_point="16.067295,44.133477"
       id="path-effect2-7-2-0-6-3-2"
       is_visible="true"
       lpeversion="1"
       deform_type="perspective"
       horizontal_mirror="false"
       vertical_mirror="false"
       overflow_perspective="false" />
    <inkscape:path-effect
       effect="perspective-envelope"
       up_left_point="25.57506,17.653961"
       up_right_point="22.29929,41.891725"
       down_left_point="3.4178539,22.938385"
       down_right_point="12.254045,44.329051"
       id="path-effect2-7-2-0-6-3-2-6"
       is_visible="true"
       lpeversion="1"
       deform_type="perspective"
       horizontal_mirror="false"
       vertical_mirror="false"
       overflow_perspective="false" />
    <inkscape:path-effect
       effect="perspective-envelope"
       up_left_point="29.438462,25.012241"
       up_right_point="22.29929,41.891725"
       down_left_point="3.4178539,22.938385"
       down_right_point="15.778471,42.481557"
       id="path-effect2-7-2-0-6-3-2-6-1"
       is_visible="true"
       lpeversion="1"
       deform_type="perspective"
       horizontal_mirror="false"
       vertical_mirror="false"
       overflow_perspective="false" />
  </defs>
  <path
     sodipodi:type="star"
     style="display:inline;fill:#ffffff;fill-opacity:1;stroke:#ffffff;stroke-width:2.82952;stroke-linecap:butt;stroke-miterlimit:4;stroke-dasharray:none;stroke-opacity:1;paint-order:stroke fill markers"
     id="path17"
     inkscape:flatsided="true"
     sodipodi:sides="6"
     sodipodi:cx="1.3291817"
     sodipodi:cy="2.1750247"
     sodipodi:r1="19.142673"
     sodipodi:r2="16.578041"
     sodipodi:arg1="1.0471976"
     sodipodi:arg2="1.5707963"
     inkscape:rounded="0"
     inkscape:randomized="0"
     d="m 10.900518,18.753067 -19.1426739,-1e-6 -9.5713361,-16.5780422 9.5713377,-16.5780408 19.1426733,1e-6 9.571336,16.5780417 z"
     transform="matrix(1.6300629,0,0,1.6300629,31.700018,30.321239)"
     inkscape:label="filled" />
  <path
     sodipodi:type="star"
     style="display:none;fill:none;stroke:#000000;stroke-width:2.82952;stroke-linecap:butt;stroke-miterlimit:4;stroke-dasharray:none;stroke-opacity:1;paint-order:stroke fill markers"
     id="path1"
     inkscape:flatsided="true"
     sodipodi:sides="6"
     sodipodi:cx="1.3291817"
     sodipodi:cy="2.1750247"
     sodipodi:r1="19.142673"
     sodipodi:r2="16.578041"
     sodipodi:arg1="1.0471976"
     sodipodi:arg2="1.5707963"
     inkscape:rounded="0"
     inkscape:randomized="0"
     d="m 10.900518,18.753067 -19.1426739,-1e-6 -9.5713361,-16.5780422 9.5713377,-16.5780408 19.1426733,1e-6 9.571336,16.5780417 z"
     transform="matrix(1.6300629,0,0,1.6300629,31.700018,30.321239)"
     inkscape:label="blank" />
  <g
     id="g16"
     inkscape:label="burning"
     style="display:none">
    <g
       id="g59"
       style="display:none"
       inkscape:label="g3">
      <path
         sodipodi:type="star"
         style="fill:#ffffff;fill-opacity:0.698039;stroke:none;stroke-width:0.1;stroke-opacity:1;paint-order:stroke fill markers"
         id="path2-3-1-3-6"
         inkscape:flatsided="true"
         sodipodi:sides="3"
         sodipodi:cx="17.174051"
         sodipodi:cy="4.5372672"
         sodipodi:r1="2.5596824"
         sodipodi:r2="6.2626109"
         sodipodi:arg1="1.5367655"
         sodipodi:arg2="2.583963"
         inkscape:rounded="0"
         inkscape:randomized="0"
         d="M 10.071929,26.706562 9.7149207,12.806268 27.530864,18.118333 Z"
         inkscape:transform-center-x="0.098347251"
         inkscape:transform-center-y="-3.5251573"
         transform="rotate(-16.42471,-7.522014,-70.141008)"
         inkscape:path-effect="#path-effect2-7-2-0-6" />
      <path
         sodipodi:type="star"
         style="fill:#ffffff;fill-opacity:0.69779;stroke:none;stroke-width:0.1;stroke-opacity:1;paint-order:stroke fill markers"
         id="path2-3-1-3-6-5"
         inkscape:flatsided="true"
         sodipodi:sides="3"
         sodipodi:cx="17.174051"
         sodipodi:cy="4.5372672"
         sodipodi:r1="2.5596824"
         sodipodi:r2="6.2626109"
         sodipodi:arg1="1.5367655"
         sodipodi:arg2="2.583963"
         inkscape:rounded="0"
         inkscape:randomized="0"
         d="M 8.7426539,31.860489 11.001927,12.499205 30.349714,29.104193 Z"
         inkscape:transform-center-x="0.098347251"
         inkscape:transform-center-y="-3.5251573"
         transform="rotate(-16.42471,65.859605,-98.039899)"
         inkscape:path-effect="#path-effect2-7-2-0-6-3" />
      <path
         sodipodi:type="star"
         style="fill:#ffffff;fill-opacity:0.69779;stroke:none;stroke-width:0.1;stroke-opacity:1;paint-order:stroke fill markers"
         id="path2-3-1-3-6-5-9-2-4"
         inkscape:flatsided="true"
         sodipodi:sides="3"
         sodipodi:cx="17.174051"
         sodipodi:cy="4.5372672"
         sodipodi:r1="2.5596824"
         sodipodi:r2="6.2626109"
         sodipodi:arg1="1.5367655"
         sodipodi:arg2="2.583963"
         inkscape:rounded="0"
         inkscape:randomized="0"
         d="M 13.657019,39.127364 28.643698,24.948898 22.29929,41.891725 Z"
         inkscape:transform-center-x="-3.0301866"
         inkscape:transform-center-y="0.38212632"
         transform="rotate(132.59481,29.896044,48.426543)"
         inkscape:path-effect="#path-effect2-7-2-0-6-3-2-6-1" />
      <path
         style="fill:#ffffff;fill-opacity:0.69779;stroke:none;stroke-width:0.122054;stroke-opacity:1;paint-order:stroke fill markers"
         d="m 181.15847,204.33669 c -0.13533,-9.36913 -0.26163,-22.8345 -0.28066,-29.92305 l -0.0346,-12.88827 8.39629,-3.68159 c 4.61796,-2.02488 15.19716,-6.66899 23.50933,-10.32024 8.31217,-3.65125 15.16202,-6.58522 15.22189,-6.51994 0.14995,0.16351 -46.1089,80.33892 -46.36245,80.35498 -0.11206,0.007 -0.31447,-7.65276 -0.44981,-17.02189 z"
         id="path3"
         transform="scale(0.26458333)" />
      <path
         style="fill:#ffffff;fill-opacity:0.69779;stroke:none;stroke-width:0.122054;stroke-opacity:1;paint-order:stroke fill markers"
         d="m 50.764792,180.7013 -7.040451,-12.25033 0.384416,-3.41627 c 0.34341,-3.05186 0.457141,-3.43287 1.066166,-3.57176 0.374963,-0.0855 9.691618,-2.05158 20.703678,-4.36903 19.139317,-4.0278 48.955149,-10.31342 60.786839,-12.81477 3.06079,-0.64708 5.63198,-1.10959 5.71377,-1.0278 0.13649,0.13649 1.128,35.87761 1.00023,36.05533 -0.0309,0.043 -16.68442,3.05882 -37.007846,6.70189 -20.323423,3.64307 -37.31498,6.69561 -37.759015,6.78342 -0.761804,0.15065 -1.204394,-0.53123 -7.847787,-12.09068 z"
         id="path6"
         transform="scale(0.26458333)" />
      <path
         style="fill:#ffffff;fill-opacity:0.87969;stroke:none;stroke-width:0.122054;stroke-opacity:1;paint-order:stroke fill markers"
         d="m 1.4532044,126.0147 c 0,-0.12195 22.2405056,-38.724194 22.4086216,-38.894036 0.106767,-0.107865 14.456537,7.259097 14.790842,7.593402 0.170997,0.170997 -1.680131,3.717791 -4.517419,8.655464 l -4.807133,8.36574 -4.168693,2.18701 C 16.304975,118.56755 1.4532044,126.14337 1.4532044,126.0147 Z"
         id="path12"
         transform="scale(0.26458333)" />
      <path
         style="fill:#ffffff;fill-opacity:0.87969;stroke:none;stroke-width:0.122054;stroke-opacity:1;paint-order:stroke fill markers"
         d="m 40.87342,195.29453 c 0.125248,-3.18428 2.807141,-25.39826 3.052561,-25.2842 0.173812,0.0808 3.257522,5.23966 6.85269,11.46417 5.579656,9.66036 6.454332,11.35084 5.974284,11.54646 -0.538805,0.21956 -14.912889,2.83871 -15.579052,2.83871 -0.177491,0 -0.312709,-0.25432 -0.300483,-0.56514 z"
         id="path15"
         transform="scale(0.26458333)" />
      <path
         sodipodi:type="star"
         style="display:inline;fill:#ffffff;fill-opacity:0.698039;stroke:none;stroke-width:0.1;stroke-opacity:1;paint-order:stroke fill markers"
         id="path2"
         inkscape:flatsided="true"
         sodipodi:sides="3"
         sodipodi:cx="17.174051"
         sodipodi:cy="4.5372672"
         sodipodi:r1="12.525221"
         sodipodi:r2="6.2626109"
         sodipodi:arg1="0.72215248"
         sodipodi:arg2="1.76935"
         inkscape:rounded="0"
         inkscape:randomized="0"
         d="M 20.354608,19.961915 5.5259173,8.2161138 19.438679,-7.7065598 Z"
         inkscape:transform-center-x="0.019798361"
         inkscape:transform-center-y="-3.1141439"
         transform="rotate(-11.195158,81.005845,11.807348)"
         inkscape:path-effect="#path-effect2" />
    </g>
    <g
       id="g58"
       inkscape:label="g2"
       style="display:none">
      <path
         sodipodi:type="star"
         style="fill:#ffffff;fill-opacity:0.69779;stroke:none;stroke-width:0.1;stroke-opacity:1;paint-order:stroke fill markers"
         id="path2-3"
         inkscape:flatsided="true"
         sodipodi:sides="3"
         sodipodi:cx="17.174051"
         sodipodi:cy="4.5372672"
         sodipodi:r1="12.525221"
         sodipodi:r2="6.2626109"
         sodipodi:arg1="0.72215248"
         sodipodi:arg2="1.76935"
         inkscape:rounded="0"
         inkscape:randomized="0"
         d="M 12.574479,28.153201 5.5534625,7.9901563 20.186099,3.7701778 Z"
         inkscape:transform-center-x="0.019798361"
         inkscape:transform-center-y="-3.1141439"
         transform="rotate(-11.195158,133.77472,49.538758)"
         inkscape:path-effect="#path-effect2-7" />
      <path
         sodipodi:type="star"
         style="fill:#ffffff;fill-opacity:0.69779;stroke:none;stroke-width:0.1;stroke-opacity:1;paint-order:stroke fill markers"
         id="path2-3-1-3"
         inkscape:flatsided="true"
         sodipodi:sides="3"
         sodipodi:cx="17.174051"
         sodipodi:cy="4.5372672"
         sodipodi:r1="2.5596824"
         sodipodi:r2="6.2626109"
         sodipodi:arg1="1.5367655"
         sodipodi:arg2="2.583963"
         inkscape:rounded="0"
         inkscape:randomized="0"
         d="M 1.7413466,25.746263 18.863873,16.29275 24.662951,24.22101 Z"
         inkscape:transform-center-x="0.098347251"
         inkscape:transform-center-y="-3.5251573"
         transform="rotate(-16.42471,32.663911,-44.89354)"
         inkscape:path-effect="#path-effect2-7-2-0" />
      <path
         sodipodi:type="star"
         style="fill:#ffffff;fill-opacity:0.698039;stroke:none;stroke-width:0.1;stroke-opacity:1;paint-order:stroke fill markers"
         id="path2-3-1-3-6-5-9-2"
         inkscape:flatsided="true"
         sodipodi:sides="3"
         sodipodi:cx="17.174051"
         sodipodi:cy="4.5372672"
         sodipodi:r1="2.5596824"
         sodipodi:r2="6.2626109"
         sodipodi:arg1="1.5367655"
         sodipodi:arg2="2.583963"
         inkscape:rounded="0"
         inkscape:randomized="0"
         d="M 9.7175355,38.188665 24.724037,17.856927 22.29929,41.891725 Z"
         inkscape:transform-center-x="-0.50339128"
         inkscape:transform-center-y="-2.9771649"
         transform="rotate(43.398234,-7.1551321,46.089475)"
         inkscape:path-effect="#path-effect2-7-2-0-6-3-2-6" />
      <path
         style="fill:#ffffff;fill-opacity:0.69779;stroke:none;stroke-width:0.122054;stroke-opacity:1;paint-order:stroke fill markers"
         d="m 86.07353,220.93225 c 0.260077,-0.24158 4.759821,-4.13439 9.99943,-8.6507 5.23961,-4.5163 13.81352,-11.91781 19.05313,-16.4478 5.2396,-4.52998 11.48497,-9.92898 13.87859,-11.99777 2.39361,-2.06879 4.37428,-3.73381 4.40148,-3.70004 0.0272,0.0338 0.213,7.40009 0.4129,16.36959 0.1999,8.9695 0.4529,18.23368 0.56222,20.58707 l 0.19876,4.27888 h -24.48969 c -20.665753,0 -24.415852,-0.0686 -24.01682,-0.43923 z"
         id="path4"
         transform="scale(0.26458333)" />
      <path
         style="fill:#ffffff;fill-opacity:0.69779;stroke:none;stroke-width:0.122054;stroke-opacity:1;paint-order:stroke fill markers"
         d="m 87.191052,118.26113 c -0.0726,-0.21456 -4.05885,-17.30392 -8.858336,-37.976361 L 69.606377,42.69851 71.904318,38.706975 74.20226,34.715439 h 27.00481 27.00481 l 5.2001,16.065983 5.20009,16.065982 -10.37734,10.495366 c -32.558058,32.92832 -40.924842,41.26956 -41.043678,40.91836 z"
         id="path8"
         transform="scale(0.26458333)" />
      <path
         style="fill:#ffffff;fill-opacity:0.69779;stroke:none;stroke-width:0.122054;stroke-opacity:1;paint-order:stroke fill markers"
         d="M 221.69441,112.71179 C 197.16124,101.60703 168.79264,88.930735 168.29883,88.852388 167.72327,88.761069 139.3679,67.335739 139.39001,67.008872 c 0.006,-0.08881 2.48064,-2.413934 5.49917,-5.16695 3.01854,-2.753015 6.82712,-6.240705 8.4635,-7.750423 1.63639,-1.509718 5.50545,-5.070069 8.59791,-7.911891 3.09247,-2.841822 7.1552,-6.583812 9.02831,-8.315534 l 3.40563,-3.148584 3.71375,0.0047 3.71374,0.0047 23.17054,40.148079 c 12.7438,22.081444 23.17054,40.244361 23.17054,40.362041 0,0.37671 -0.37914,0.22859 -6.45869,-2.52328 z"
         id="path9"
         transform="scale(0.26458333)" />
      <path
         style="fill:#ffffff;fill-opacity:0.87969;stroke:none;stroke-width:0.122054;stroke-opacity:1;paint-order:stroke fill markers"
         d="m 66.210506,238.18987 c 0.350294,-0.34104 4.775185,-4.19203 9.833092,-8.55776 l 9.196194,-7.9377 h 24.590158 24.59016 l 0.23815,8.42463 c 0.21454,7.5892 0.29066,8.40911 0.76763,8.26812 0.2912,-0.0861 8.63413,-3.80451 18.53983,-8.26317 9.9057,-4.45865 18.11763,-8.10664 18.24873,-8.10664 0.20926,0 8.4673,16.2217 8.4673,16.63276 0,0.0879 -25.89933,0.15982 -57.55407,0.15982 -56.761539,0 -57.545302,-0.009 -56.917174,-0.62006 z"
         id="path13"
         transform="scale(0.26458333)" />
      <path
         sodipodi:type="star"
         style="display:inline;fill:#ffffff;fill-opacity:0.69779;stroke:none;stroke-width:0.1;stroke-opacity:1;paint-order:stroke fill markers"
         id="path2-3-1"
         inkscape:flatsided="true"
         sodipodi:sides="3"
         sodipodi:cx="17.174051"
         sodipodi:cy="4.5372672"
         sodipodi:r1="12.525221"
         sodipodi:r2="6.2626109"
         sodipodi:arg1="0.72215248"
         sodipodi:arg2="1.76935"
         inkscape:rounded="0"
         inkscape:randomized="0"
         d="M 3.5361929,24.970759 15.71431,14.631627 27.211783,21.931184 Z"
         inkscape:transform-center-x="-0.014934881"
         inkscape:transform-center-y="-4.270087"
         transform="rotate(-4.6004714,228.69108,-68.020638)"
         inkscape:path-effect="#path-effect2-7-2" />
    </g>
    <g
       id="g57"
       style="display:none"
       inkscape:label="g1">
      <path
         sodipodi:type="star"
         style="fill:#ffffff;fill-opacity:0.69779;stroke:none;stroke-width:0.1;stroke-opacity:1;paint-order:stroke fill markers"
         id="path2-3-1-3-6-5-9"
         inkscape:flatsided="true"
         sodipodi:sides="3"
         sodipodi:cx="17.174051"
         sodipodi:cy="4.5372672"
         sodipodi:r1="2.5596824"
         sodipodi:r2="6.2626109"
         sodipodi:arg1="1.5367655"
         sodipodi:arg2="2.583963"
         inkscape:rounded="0"
         inkscape:randomized="0"
         d="M 12.336897,37.882914 18.931735,13.3116 23.117303,36.414471 Z"
         inkscape:transform-center-x="0.098347251"
         inkscape:transform-center-y="-3.5251573"
         transform="rotate(-16.42471,111.32324,-30.539502)"
         inkscape:path-effect="#path-effect2-7-2-0-6-3-2" />
      <path
         style="fill:#ffffff;fill-opacity:0.69779;stroke:none;stroke-width:0.122054;stroke-opacity:1;paint-order:stroke fill markers"
         d="m 141.84056,160.16068 c -4.93188,-9.86567 -9.08683,-17.86357 -9.23323,-17.77309 -0.14639,0.0905 -5.99239,-2.85308 -12.99112,-6.54123 -6.99872,-3.68815 -16.96616,-8.94227 -22.149856,-11.67582 l -9.424906,-4.9701 39.942202,-14.73874 c 33.62748,-12.408596 39.979,-14.657982 40.175,-14.227946 0.19168,0.420558 3.84361,21.438966 11.35274,65.339856 0.56963,3.33026 0.92906,6.05502 0.79874,6.05502 -0.13032,0 -6.73327,3.70567 -14.6732,8.23482 -7.93993,4.52916 -14.52468,8.23483 -14.63278,8.23483 -0.10809,0 -4.23171,-8.07192 -9.16359,-17.9376 z"
         id="path5"
         transform="scale(0.26458333)" />
      <path
         style="fill:#ffffff;fill-opacity:0.69779;stroke:none;stroke-width:0.122054;stroke-opacity:1;paint-order:stroke fill markers"
         d="m 44.726403,160.14097 c 0,-0.50248 5.541398,-52.6656 6.195881,-58.32399 0.100604,-0.86979 0.228367,-0.81105 17.621399,8.10114 9.636032,4.9375 17.586485,9.0437 17.667667,9.12489 0.08118,0.0812 -9.219716,9.51408 -20.66867,20.962 -14.759676,14.75835 -20.816277,20.61701 -20.816277,20.13596 z"
         id="path7"
         transform="scale(0.26458333)" />
      <path
         style="fill:#ffffff;fill-opacity:0.87969;stroke:none;stroke-width:0.122054;stroke-opacity:1;paint-order:stroke fill markers"
         d="m 66.614992,29.776959 c -1.53009,-6.601273 -2.712778,-12.114288 -2.628197,-12.251144 0.08458,-0.136856 13.292365,-0.248829 29.350629,-0.248829 h 29.196846 l 2.63804,8.154092 c 1.45092,4.48475 2.70604,8.335742 2.78915,8.557759 0.12013,0.320928 -5.40263,0.403668 -26.94405,0.403668 H 73.922267 l -2.021333,3.544244 c -1.111733,1.949335 -2.129924,3.611358 -2.262646,3.693385 -0.132723,0.08203 -1.493206,-5.251902 -3.023296,-11.853175 z"
         id="path11"
         transform="scale(0.26458333)" />
      <path
         style="fill:#ffffff;fill-opacity:1;stroke:none;stroke-width:0.122054;stroke-opacity:1;paint-order:stroke fill markers"
         d="m 181.56067,230.33381 c -0.14791,-6.58462 -0.10076,-8.52629 0.21132,-8.70094 0.22095,-0.12365 10.91856,-18.44238 23.77247,-40.70829 l 23.37074,-40.48348 12.93999,-5.67665 c 7.117,-3.12215 12.99186,-5.62966 13.05525,-5.57224 0.0634,0.0574 -14.10534,24.74278 -31.48609,54.85635 l -31.60136,54.75195 -5.03596,0.005 -5.03596,0.005 z"
         id="path14"
         transform="scale(0.26458333)" />
      <path
         style="fill:#ffffff;fill-opacity:0.87969;stroke:none;stroke-width:0.122054;stroke-opacity:1;paint-order:stroke fill markers"
         d="m 30.194359,111.1182 c 0,-0.16163 8.921966,-15.678558 9.140622,-15.897214 0.08532,-0.08532 2.660013,1.098943 5.72153,2.631704 3.061517,1.532762 5.438575,2.90236 5.282352,3.04354 -0.314284,0.28404 -19.763495,10.35464 -19.997761,10.35464 -0.08071,0 -0.146743,-0.0597 -0.146743,-0.13267 z"
         id="path16"
         transform="scale(0.26458333)" />
      <path
         style="display:inline;fill:#ffffff;fill-opacity:0.87969;stroke:none;stroke-width:0.122054;stroke-opacity:1;paint-order:stroke fill markers"
         d="m 241.99243,121.84588 -12.80275,-5.80818 -23.52736,-40.801805 -23.52736,-40.80181 -3.58518,-0.101524 -3.58519,-0.101523 8.72041,-8.026371 c 7.69812,-7.08544 8.75913,-7.956164 9.05072,-7.427489 0.65126,1.180799 61.65945,106.866952 62.28258,107.893812 0.45927,0.75684 0.51697,1.04027 0.20689,1.0163 -0.23651,-0.0183 -6.19125,-2.64691 -13.23276,-5.84141 z"
         id="path10"
         transform="scale(0.26458333)" />
    </g>
  </g>
  <g
     id="g40"
     inkscape:label="frozen"
     style="display:none">
    <path
       sodipodi:type="star"
       style="fill:#77d1ff;fill-opacity:0.698039;stroke:none;stroke-width:0.1;stroke-opacity:1;paint-order:stroke fill markers"
       id="path18"
       inkscape:flatsided="true"
       sodipodi:sides="3"
       sodipodi:cx="17.174051"
       sodipodi:cy="4.5372672"
       sodipodi:r1="12.525221"
       sodipodi:r2="6.2626109"
       sodipodi:arg1="0.72215248"
       sodipodi:arg2="1.76935"
       inkscape:rounded="0"
       inkscape:randomized="0"
       d="M 20.354608,19.961915 5.5259173,8.2161138 19.438679,-7.7065598 Z"
       inkscape:transform-center-x="0.019798361"
       inkscape:transform-center-y="-3.1141439"
       transform="rotate(-11.195158,81.005844,11.807351)"
       inkscape:path-effect="#path-effect41" />
    <path
       sodipodi:type="star"
       style="fill:#59c6ff;fill-opacity:0.69779;stroke:none;stroke-width:0.1;stroke-opacity:1;paint-order:stroke fill markers"
       id="path19"
       inkscape:flatsided="true"
       sodipodi:sides="3"
       sodipodi:cx="17.174051"
       sodipodi:cy="4.5372672"
       sodipodi:r1="12.525221"
       sodipodi:r2="6.2626109"
       sodipodi:arg1="0.72215248"
       sodipodi:arg2="1.76935"
       inkscape:rounded="0"
       inkscape:randomized="0"
       d="M 12.574479,28.153201 5.5534625,7.9901563 20.186099,3.7701778 Z"
       inkscape:transform-center-x="0.019798361"
       inkscape:transform-center-y="-3.1141439"
       transform="rotate(-11.195158,133.77472,49.538758)"
       inkscape:path-effect="#path-effect43" />
    <path
       sodipodi:type="star"
       style="fill:#59c6ff;fill-opacity:0.69779;stroke:none;stroke-width:0.1;stroke-opacity:1;paint-order:stroke fill markers"
       id="path20"
       inkscape:flatsided="true"
       sodipodi:sides="3"
       sodipodi:cx="17.174051"
       sodipodi:cy="4.5372672"
       sodipodi:r1="12.525221"
       sodipodi:r2="6.2626109"
       sodipodi:arg1="0.72215248"
       sodipodi:arg2="1.76935"
       inkscape:rounded="0"
       inkscape:randomized="0"
       d="M 3.5361929,24.970759 15.71431,14.631627 27.211783,21.931184 Z"
       inkscape:transform-center-x="-0.014934881"
       inkscape:transform-center-y="-4.270087"
       transform="rotate(-4.6004714,228.69107,-68.020675)"
       inkscape:path-effect="#path-effect45" />
    <path
       sodipodi:type="star"
       style="fill:#59c6ff;fill-opacity:0.69779;stroke:none;stroke-width:0.1;stroke-opacity:1;paint-order:stroke fill markers"
       id="path21"
       inkscape:flatsided="true"
       sodipodi:sides="3"
       sodipodi:cx="17.174051"
       sodipodi:cy="4.5372672"
       sodipodi:r1="2.5596824"
       sodipodi:r2="6.2626109"
       sodipodi:arg1="1.5367655"
       sodipodi:arg2="2.583963"
       inkscape:rounded="0"
       inkscape:randomized="0"
       d="M 1.7413466,25.746263 18.863873,16.29275 24.662951,24.22101 Z"
       inkscape:transform-center-x="0.098347251"
       inkscape:transform-center-y="-3.5251573"
       transform="rotate(-16.42471,32.663911,-44.89354)"
       inkscape:path-effect="#path-effect47" />
    <path
       sodipodi:type="star"
       style="fill:#77d1ff;fill-opacity:0.698039;stroke:none;stroke-width:0.1;stroke-opacity:1;paint-order:stroke fill markers"
       id="path22"
       inkscape:flatsided="true"
       sodipodi:sides="3"
       sodipodi:cx="17.174051"
       sodipodi:cy="4.5372672"
       sodipodi:r1="2.5596824"
       sodipodi:r2="6.2626109"
       sodipodi:arg1="1.5367655"
       sodipodi:arg2="2.583963"
       inkscape:rounded="0"
       inkscape:randomized="0"
       d="M 10.071929,26.706562 9.7149207,12.806268 27.530864,18.118333 Z"
       inkscape:transform-center-x="0.098347251"
       inkscape:transform-center-y="-3.5251573"
       transform="rotate(-16.42471,-7.522014,-70.141008)"
       inkscape:path-effect="#path-effect49" />
    <path
       sodipodi:type="star"
       style="fill:#59c6ff;fill-opacity:0.69779;stroke:none;stroke-width:0.1;stroke-opacity:1;paint-order:stroke fill markers"
       id="path23"
       inkscape:flatsided="true"
       sodipodi:sides="3"
       sodipodi:cx="17.174051"
       sodipodi:cy="4.5372672"
       sodipodi:r1="2.5596824"
       sodipodi:r2="6.2626109"
       sodipodi:arg1="1.5367655"
       sodipodi:arg2="2.583963"
       inkscape:rounded="0"
       inkscape:randomized="0"
       d="M 8.7426539,31.860489 11.001927,12.499205 30.349714,29.104193 Z"
       inkscape:transform-center-x="0.098347251"
       inkscape:transform-center-y="-3.5251573"
       transform="rotate(-16.42471,65.859605,-98.039899)"
       inkscape:path-effect="#path-effect51" />
    <path
       sodipodi:type="star"
       style="fill:#59c6ff;fill-opacity:0.69779;stroke:none;stroke-width:0.1;stroke-opacity:1;paint-order:stroke fill markers"
       id="path24"
       inkscape:flatsided="true"
       sodipodi:sides="3"
       sodipodi:cx="17.174051"
       sodipodi:cy="4.5372672"
       sodipodi:r1="2.5596824"
       sodipodi:r2="6.2626109"
       sodipodi:arg1="1.5367655"
       sodipodi:arg2="2.583963"
       inkscape:rounded="0"
       inkscape:randomized="0"
       d="M 12.336897,37.882914 18.931735,13.3116 23.117303,36.414471 Z"
       inkscape:transform-center-x="0.098347251"
       inkscape:transform-center-y="-3.5251573"
       transform="rotate(-16.42471,111.32324,-30.539502)"
       inkscape:path-effect="#path-effect53" />
    <path
       sodipodi:type="star"
       style="fill:#77d1ff;fill-opacity:0.698039;stroke:none;stroke-width:0.1;stroke-opacity:1;paint-order:stroke fill markers"
       id="path25"
       inkscape:flatsided="true"
       sodipodi:sides="3"
       sodipodi:cx="17.174051"
       sodipodi:cy="4.5372672"
       sodipodi:r1="2.5596824"
       sodipodi:r2="6.2626109"
       sodipodi:arg1="1.5367655"
       sodipodi:arg2="2.583963"
       inkscape:rounded="0"
       inkscape:randomized="0"
       d="M 9.7175355,38.188665 24.724037,17.856927 22.29929,41.891725 Z"
       inkscape:transform-center-x="-0.50339128"
       inkscape:transform-center-y="-2.9771649"
       transform="rotate(43.398234,-7.1551321,46.089475)"
       inkscape:path-effect="#path-effect55" />
    <path
       sodipodi:type="star"
       style="fill:#59c6ff;fill-opacity:0.69779;stroke:none;stroke-width:0.1;stroke-opacity:1;paint-order:stroke fill markers"
       id="path26"
       inkscape:flatsided="true"
       sodipodi:sides="3"
       sodipodi:cx="17.174051"
       sodipodi:cy="4.5372672"
       sodipodi:r1="2.5596824"
       sodipodi:r2="6.2626109"
       sodipodi:arg1="1.5367655"
       sodipodi:arg2="2.583963"
       inkscape:rounded="0"
       inkscape:randomized="0"
       d="M 13.657019,39.127364 28.643698,24.948898 22.29929,41.891725 Z"
       inkscape:transform-center-x="-3.0301866"
       inkscape:transform-center-y="0.38212632"
       transform="rotate(132.59481,29.896044,48.426543)"
       inkscape:path-effect="#path-effect57" />
    <path
       style="fill:#8ed9ff;fill-opacity:0.69779;stroke:none;stroke-width:0.122054;stroke-opacity:1;paint-order:stroke fill markers"
       d="m 181.15847,204.33669 c -0.13533,-9.36913 -0.26163,-22.8345 -0.28066,-29.92305 l -0.0346,-12.88827 8.39629,-3.68159 c 4.61796,-2.02488 15.19716,-6.66899 23.50933,-10.32024 8.31217,-3.65125 15.16202,-6.58522 15.22189,-6.51994 0.14995,0.16351 -46.1089,80.33892 -46.36245,80.35498 -0.11206,0.007 -0.31447,-7.65276 -0.44981,-17.02189 z"
       id="path27"
       transform="scale(0.26458333)" />
    <path
       style="fill:#8ed9ff;fill-opacity:0.69779;stroke:none;stroke-width:0.122054;stroke-opacity:1;paint-order:stroke fill markers"
       d="m 86.07353,220.93225 c 0.260077,-0.24158 4.759821,-4.13439 9.99943,-8.6507 5.23961,-4.5163 13.81352,-11.91781 19.05313,-16.4478 5.2396,-4.52998 11.48497,-9.92898 13.87859,-11.99777 2.39361,-2.06879 4.37428,-3.73381 4.40148,-3.70004 0.0272,0.0338 0.213,7.40009 0.4129,16.36959 0.1999,8.9695 0.4529,18.23368 0.56222,20.58707 l 0.19876,4.27888 h -24.48969 c -20.665753,0 -24.415852,-0.0686 -24.01682,-0.43923 z"
       id="path28"
       transform="scale(0.26458333)" />
    <path
       style="fill:#77d1ff;fill-opacity:0.69779;stroke:none;stroke-width:0.122054;stroke-opacity:1;paint-order:stroke fill markers"
       d="m 141.84056,160.16068 c -4.93188,-9.86567 -9.08683,-17.86357 -9.23323,-17.77309 -0.14639,0.0905 -5.99239,-2.85308 -12.99112,-6.54123 -6.99872,-3.68815 -16.96616,-8.94227 -22.149856,-11.67582 l -9.424906,-4.9701 39.942202,-14.73874 c 33.62748,-12.408596 39.979,-14.657982 40.175,-14.227946 0.19168,0.420558 3.84361,21.438966 11.35274,65.339856 0.56963,3.33026 0.92906,6.05502 0.79874,6.05502 -0.13032,0 -6.73327,3.70567 -14.6732,8.23482 -7.93993,4.52916 -14.52468,8.23483 -14.63278,8.23483 -0.10809,0 -4.23171,-8.07192 -9.16359,-17.9376 z"
       id="path29"
       transform="scale(0.26458333)" />
    <path
       style="fill:#8ed9ff;fill-opacity:0.69779;stroke:none;stroke-width:0.122054;stroke-opacity:1;paint-order:stroke fill markers"
       d="m 50.764792,180.7013 -7.040451,-12.25033 0.384416,-3.41627 c 0.34341,-3.05186 0.457141,-3.43287 1.066166,-3.57176 0.374963,-0.0855 9.691618,-2.05158 20.703678,-4.36903 19.139317,-4.0278 48.955149,-10.31342 60.786839,-12.81477 3.06079,-0.64708 5.63198,-1.10959 5.71377,-1.0278 0.13649,0.13649 1.128,35.87761 1.00023,36.05533 -0.0309,0.043 -16.68442,3.05882 -37.007846,6.70189 -20.323423,3.64307 -37.31498,6.69561 -37.759015,6.78342 -0.761804,0.15065 -1.204394,-0.53123 -7.847787,-12.09068 z"
       id="path30"
       transform="scale(0.26458333)" />
    <path
       style="fill:#8ed9ff;fill-opacity:0.69779;stroke:none;stroke-width:0.122054;stroke-opacity:1;paint-order:stroke fill markers"
       d="m 44.726403,160.14097 c 0,-0.50248 5.541398,-52.6656 6.195881,-58.32399 0.100604,-0.86979 0.228367,-0.81105 17.621399,8.10114 9.636032,4.9375 17.586485,9.0437 17.667667,9.12489 0.08118,0.0812 -9.219716,9.51408 -20.66867,20.962 -14.759676,14.75835 -20.816277,20.61701 -20.816277,20.13596 z"
       id="path31"
       transform="scale(0.26458333)" />
    <path
       style="fill:#8ed9ff;fill-opacity:0.69779;stroke:none;stroke-width:0.122054;stroke-opacity:1;paint-order:stroke fill markers"
       d="m 87.191052,118.26113 c -0.0726,-0.21456 -4.05885,-17.30392 -8.858336,-37.976361 L 69.606377,42.69851 71.904318,38.706975 74.20226,34.715439 h 27.00481 27.00481 l 5.2001,16.065983 5.20009,16.065982 -10.37734,10.495366 c -32.558058,32.92832 -40.924842,41.26956 -41.043678,40.91836 z"
       id="path32"
       transform="scale(0.26458333)" />
    <path
       style="fill:#8ed9ff;fill-opacity:0.69779;stroke:none;stroke-width:0.122054;stroke-opacity:1;paint-order:stroke fill markers"
       d="M 221.69441,112.71179 C 197.16124,101.60703 168.79264,88.930735 168.29883,88.852388 167.72327,88.761069 139.3679,67.335739 139.39001,67.008872 c 0.006,-0.08881 2.48064,-2.413934 5.49917,-5.16695 3.01854,-2.753015 6.82712,-6.240705 8.4635,-7.750423 1.63639,-1.509718 5.50545,-5.070069 8.59791,-7.911891 3.09247,-2.841822 7.1552,-6.583812 9.02831,-8.315534 l 3.40563,-3.148584 3.71375,0.0047 3.71374,0.0047 23.17054,40.148079 c 12.7438,22.081444 23.17054,40.244361 23.17054,40.362041 0,0.37671 -0.37914,0.22859 -6.45869,-2.52328 z"
       id="path33"
       transform="scale(0.26458333)" />
    <path
       style="fill:#80d4ff;fill-opacity:0.87969;stroke:none;stroke-width:0.122054;stroke-opacity:1;paint-order:stroke fill markers"
       d="m 241.99243,121.84588 -12.80275,-5.80818 -23.52736,-40.801805 -23.52736,-40.80181 -3.58518,-0.101524 -3.58519,-0.101523 8.72041,-8.026371 c 7.69812,-7.08544 8.75913,-7.956164 9.05072,-7.427489 0.65126,1.180799 61.65945,106.866952 62.28258,107.893812 0.45927,0.75684 0.51697,1.04027 0.20689,1.0163 -0.23651,-0.0183 -6.19125,-2.64691 -13.23276,-5.84141 z"
       id="path34"
       transform="scale(0.26458333)" />
    <path
       style="fill:#80d4ff;fill-opacity:0.87969;stroke:none;stroke-width:0.122054;stroke-opacity:1;paint-order:stroke fill markers"
       d="m 66.614992,29.776959 c -1.53009,-6.601273 -2.712778,-12.114288 -2.628197,-12.251144 0.08458,-0.136856 13.292365,-0.248829 29.350629,-0.248829 h 29.196846 l 2.63804,8.154092 c 1.45092,4.48475 2.70604,8.335742 2.78915,8.557759 0.12013,0.320928 -5.40263,0.403668 -26.94405,0.403668 H 73.922267 l -2.021333,3.544244 c -1.111733,1.949335 -2.129924,3.611358 -2.262646,3.693385 -0.132723,0.08203 -1.493206,-5.251902 -3.023296,-11.853175 z"
       id="path35"
       transform="scale(0.26458333)" />
    <path
       style="fill:#80d4ff;fill-opacity:0.87969;stroke:none;stroke-width:0.122054;stroke-opacity:1;paint-order:stroke fill markers"
       d="m 1.4532044,126.0147 c 0,-0.12195 22.2405056,-38.724194 22.4086216,-38.894036 0.106767,-0.107865 14.456537,7.259097 14.790842,7.593402 0.170997,0.170997 -1.680131,3.717791 -4.517419,8.655464 l -4.807133,8.36574 -4.168693,2.18701 C 16.304975,118.56755 1.4532044,126.14337 1.4532044,126.0147 Z"
       id="path36"
       transform="scale(0.26458333)" />
    <path
       style="fill:#80d4ff;fill-opacity:0.87969;stroke:none;stroke-width:0.122054;stroke-opacity:1;paint-order:stroke fill markers"
       d="m 66.210506,238.18987 c 0.350294,-0.34104 4.775185,-4.19203 9.833092,-8.55776 l 9.196194,-7.9377 h 24.590158 24.59016 l 0.23815,8.42463 c 0.21454,7.5892 0.29066,8.40911 0.76763,8.26812 0.2912,-0.0861 8.63413,-3.80451 18.53983,-8.26317 9.9057,-4.45865 18.11763,-8.10664 18.24873,-8.10664 0.20926,0 8.4673,16.2217 8.4673,16.63276 0,0.0879 -25.89933,0.15982 -57.55407,0.15982 -56.761539,0 -57.545302,-0.009 -56.917174,-0.62006 z"
       id="path37"
       transform="scale(0.26458333)" />
    <path
       style="fill:#77d1ff;fill-opacity:0.698039;stroke:none;stroke-width:0.122054;stroke-opacity:1;paint-order:stroke fill markers"
       d="m 181.56067,230.33381 c -0.14791,-6.58462 -0.10076,-8.52629 0.21132,-8.70094 0.22095,-0.12365 10.91856,-18.44238 23.77247,-40.70829 l 23.37074,-40.48348 12.93999,-5.67665 c 7.117,-3.12215 12.99186,-5.62966 13.05525,-5.57224 0.0634,0.0574 -14.10534,24.74278 -31.48609,54.85635 l -31.60136,54.75195 -5.03596,0.005 -5.03596,0.005 z"
       id="path38"
       transform="scale(0.26458333)" />
    <path
       style="fill:#80d4ff;fill-opacity:0.87969;stroke:none;stroke-width:0.122054;stroke-opacity:1;paint-order:stroke fill markers"
       d="m 40.87342,195.29453 c 0.125248,-3.18428 2.807141,-25.39826 3.052561,-25.2842 0.173812,0.0808 3.257522,5.23966 6.85269,11.46417 5.579656,9.66036 6.454332,11.35084 5.974284,11.54646 -0.538805,0.21956 -14.912889,2.83871 -15.579052,2.83871 -0.177491,0 -0.312709,-0.25432 -0.300483,-0.56514 z"
       id="path39"
       transform="scale(0.26458333)" />
    <path
       style="fill:#80d4ff;fill-opacity:0.87969;stroke:none;stroke-width:0.122054;stroke-opacity:1;paint-order:stroke fill markers"
       d="m 30.194359,111.1182 c 0,-0.16163 8.921966,-15.678558 9.140622,-15.897214 0.08532,-0.08532 2.660013,1.098943 5.72153,2.631704 3.061517,1.532762 5.438575,2.90236 5.282352,3.04354 -0.314284,0.28404 -19.763495,10.35464 -19.997761,10.35464 -0.08071,0 -0.146743,-0.0597 -0.146743,-0.13267 z"
       id="path40"
       transform="scale(0.26458333)" />
  </g>
</svg>
